<svg xmlns="http://www.w3.org/2000/svg" width="108" height="108" viewBox="0 0 108 108"><g transform="translate(297 1331.208)"><g transform="translate(-282.736 -1298.419)"><path d="M23.017,42.631H15.237L0,0H7.781L23.017,42.631Z" transform="translate(0 0)" fill="#fff"/><path d="M23.017,0H15.237L0,42.631H7.781L23.017,0Z" transform="translate(79.102 42.631) rotate(180)" fill="#fff"/><path d="M7.78,35.337H0L12.63,0H20.41L7.78,35.336Z" transform="translate(47.183 0)" fill="#fff"/><path d="M20.41,35.336H12.63L0,0H7.781Z" transform="translate(11.509 0)" fill="#fff"/><path d="M7.78,28.2H0L10.081,0h7.781L7.78,28.2Z" transform="translate(24.314 7.132)" fill="#fff"/><path d="M7.78,0H0L10.081,28.2h7.781L7.78,0Z" transform="translate(54.981 35.337) rotate(180)" fill="#fff"/></g><g transform="translate(-297 -1331.208)" fill="none" stroke="#fff" stroke-width="5"><circle cx="54" cy="54" r="54" stroke="none"/><circle cx="54" cy="54" r="51.5" fill="none"/></g></g></svg>