<svg xmlns="http://www.w3.org/2000/svg" width="665" height="665" viewBox="0 0 665 665"><g transform="translate(297 1331)"><circle cx="332.5" cy="332.5" r="332.5" transform="translate(-297 -1331)"/><g transform="translate(-857 -4)"><path d="M270,279H222L128,16h48l94,263Z" transform="translate(520 -1142)" fill="#fff"/><path d="M142,0H94L0,263H48L142,0Z" transform="translate(1136 -862.999) rotate(180)" fill="#fff"/><path d="M72.083,218h-48L102,0h48L72.084,218Z" transform="translate(915 -1126)" fill="#fff"/><path d="M125.917,218h-48L0,0H48Z" transform="translate(719 -1126)" fill="#fff"/><path d="M48,235H0L62.19,61h48L48,235Z" transform="translate(798 -1143)" fill="#fff"/><path d="M48,0H0L62.19,174h48L48,0Z" transform="translate(987.19 -907.999) rotate(180)" fill="#fff"/></g><g transform="translate(-297 -1331)" fill="none" stroke="#fff" stroke-width="14"><circle cx="332.5" cy="332.5" r="332.5" stroke="none"/><circle cx="332.5" cy="332.5" r="325.5" fill="none"/></g></g></svg>