<svg xmlns="http://www.w3.org/2000/svg" width="36" height="36" viewBox="0 0 36 36"><path d="M39.531,21.006a19.632,19.632,0,0,0-1.545-7.291,19.019,19.019,0,0,0-4.1-6.071A18.189,18.189,0,0,0,27.9,3.684a17.511,17.511,0,0,0-13.779.277A17.819,17.819,0,0,0,8.432,8.069,18.34,18.34,0,0,0,4.724,14.06a18.6,18.6,0,0,0,.268,13.777,17.818,17.818,0,0,0,3.85,5.682,17.027,17.027,0,0,0,5.61,3.7,16.385,16.385,0,0,0,12.889-.277A16.66,16.66,0,0,0,32.653,33.1a17.154,17.154,0,0,0,4.42-9.494c.045,0,.091,0,.137,0a2.362,2.362,0,0,0,2.322-2.4c0-.067,0-.134-.009-.2h.009Zm-3.69,6.372a16.613,16.613,0,0,1-3.6,5.293,15.869,15.869,0,0,1-5.234,3.441,15.258,15.258,0,0,1-12-.277,15.5,15.5,0,0,1-4.935-3.588,15.928,15.928,0,0,1-3.2-5.213,16.1,16.1,0,0,1-1.011-6.027,15.917,15.917,0,0,1,1.279-5.912,15.415,15.415,0,0,1,3.347-4.9,14.706,14.706,0,0,1,4.858-3.181,14.131,14.131,0,0,1,11.11.277,14.34,14.34,0,0,1,4.558,3.329,14.763,14.763,0,0,1,3.876,10.392H34.9q-.008.1-.009.2a2.372,2.372,0,0,0,2.071,2.385,16.954,16.954,0,0,1-1.117,3.786Z" transform="translate(-3.531 -2.407)" fill="#fff"/></svg>